<?xml version="1.0" encoding="UTF-8" standalone="no"?>
<svg
   xmlns:dc="http://purl.org/dc/elements/1.1/"
   xmlns:cc="http://creativecommons.org/ns#"
   xmlns:rdf="http://www.w3.org/1999/02/22-rdf-syntax-ns#"
   xmlns:svg="http://www.w3.org/2000/svg"
   xmlns="http://www.w3.org/2000/svg"
   viewBox="0 0 212 133.34802"
   height="133.34802"
   width="212"
   id="svg96"
   version="1.1">
  <metadata
     id="metadata102">
    <rdf:RDF>
      <cc:Work
         rdf:about="">
        <dc:format>image/svg+xml</dc:format>
        <dc:type
           rdf:resource="http://purl.org/dc/dcmitype/StillImage" />
        <dc:title></dc:title>
      </cc:Work>
    </rdf:RDF>
  </metadata>
  <defs
     id="defs100" />
  <path
     style="fill:#e6e6e6;stroke-width:1"
     d="m 169.58059,133.26166 c -0.32509,-0.0331 -0.64095,-0.13867 -0.70191,-0.23452 -0.061,-0.0958 -0.11188,-2.99269 -0.11313,-6.43743 l -0.003,-6.26317 -0.70418,-0.42745 c -1.97358,-1.19802 -3.96274,-2.82974 -4.80504,-3.94163 -0.29862,-0.39418 -0.63028,-1.02348 -0.73703,-1.39845 -0.4213,-1.4798 0,-4.22227 1.37935,-8.9836 l 0.77317,-2.66845 0.006,-2.37195 c 0.007,-3.04459 -0.2439,-4.298848 -1.31958,-6.597002 -1.18943,-2.541212 -1.78066,-5.041949 -1.94519,-8.227715 -0.0463,-0.896895 -0.11229,-1.720423 -0.14661,-1.830061 -0.0414,-0.13206 -0.36805,0.06809 -0.96794,0.592989 -1.3621,1.191858 -2.64708,2.179944 -3.39218,2.608434 -0.36691,0.211005 -0.77079,0.47095 -0.89753,0.577653 -0.51978,0.437642 -3.58375,1.830138 -5.10648,2.320758 -2.7751,0.894141 -3.93193,1.063458 -7.18998,1.052356 -3.09708,-0.01056 -5.69393,-0.315979 -8.67245,-1.019997 -3.22088,-0.761303 -6.80198,-2.127758 -8.87566,-3.38672 -0.62785,-0.381172 -1.19062,-0.693042 -1.25061,-0.693042 -0.06,0 -0.18441,0.396471 -0.2765,0.881046 -0.20138,1.059647 -0.77195,2.350271 -1.37645,3.113517 -0.9058,1.143661 -2.65875,1.991868 -4.76486,2.30559 l -0.5334,0.07945 0.11086,0.701683 c 0.061,0.385925 0.19321,1.735707 0.29387,2.999513 0.40395,5.071448 -0.23503,7.832788 -2.18162,9.427878 -0.82428,0.67578 -2.33053,1.24592 -3.29118,1.24592 -1.58103,0 -4.32404,-0.97782 -5.40469,-1.92665 l -0.55565,-0.48786 -0.40094,0.36325 c -1.48801,1.34813 -4.06697,2.50016 -5.58367,2.49424 -1.404938,-0.005 -3.077572,-0.78542 -4.135882,-1.92852 -1.30371,-1.40816 -1.351071,-1.66417 -1.148077,-6.205743 0.09337,-2.08883 0.211583,-4.424993 0.262708,-5.191474 0.06208,-0.930883 0.04282,-1.362613 -0.05805,-1.300275 -0.185011,0.11434 -1.658028,-0.258095 -2.477942,-0.626525 -0.749937,-0.336985 -1.92665,-1.370513 -2.382451,-2.092549 -0.431021,-0.682789 -0.814136,-1.950251 -0.814136,-2.693426 0,-0.311345 -0.0293,-0.566081 -0.06511,-0.566081 -0.03582,0 -0.576329,0.366779 -1.201145,0.815063 -4.427088,3.176291 -10.474006,5.226215 -16.82582,5.704005 -4.17598,0.314122 -8.092689,-0.481635 -11.98932,-2.435869 -0.921111,-0.461955 -1.698949,-0.815713 -1.728533,-0.786129 -0.124236,0.124235 -1.281005,4.916892 -1.565779,6.487241 -0.388896,2.144522 -0.317107,4.391722 0.231606,7.249942 0.209821,1.09294 0.381492,2.23294 0.381492,2.53334 0,0.66465 -1.145412,3.07285 -2.216514,4.66015 -0.777446,1.15213 -2.144418,2.63237 -3.253479,3.52308 l -0.651962,0.5236 0.171143,3.986 c 0.09413,2.1923 0.21442,5.85546 0.267316,8.14036 0.08992,3.88442 0.07875,4.17178 -0.172041,4.42257 -0.203974,0.20398 -0.395896,0.24564 -0.801331,0.17397 -0.899632,-0.15905 -1.048694,-0.23472 -1.123012,-0.57013 -0.03944,-0.17802 -0.139064,-2.65857 -0.22137,-5.51232 -0.180883,-6.27151 -0.299398,-8.52421 -0.448461,-8.52421 -0.06178,0 -0.203879,0.11064 -0.315783,0.24587 -0.361783,0.43719 -2.843631,2.29257 -3.534853,2.64259 -1.132799,0.57361 -2.206608,0.81547 -4.599828,1.03606 -2.514604,0.23179 -2.758175,0.29867 -5.040402,1.38414 -2.707526,1.28775 -2.43939,1.25478 -9.236738,1.13586 l -5.958592,-0.10423 -1.185978,0.47955 c -1.908522,0.77172 -3.50602,1.2843 -4.626896,1.48462 -0.904836,0.16169 -1.243083,0.15189 -2.508643,-0.0727 -2.9686936,-0.52687 -4.5398565,-1.43766 -6.4372705,-3.73152 -2.464394,-2.97931 -5.32892459,-7.52359 -5.32892459,-8.45379 0,-0.26099 -0.0674756,-0.65202 -0.14995707,-0.86895 -0.16465576,-0.43307 0.0519236,-1.46476 0.38439275,-1.83111 0.10227662,-0.1127 0.70668291,-0.48228 1.34313561,-0.82129 1.2276238,-0.6539 1.3178813,-0.77717 1.6314143,-2.22797 0.094271,-0.43624 0.2504616,-0.65779 0.6120753,-0.86822 0.9738877,-0.56673 2.0951293,0.0822 3.4324931,1.9865 0.752173,1.07106 0.8855634,1.45638 1.2782451,3.69247 0.3500239,1.99317 1.2231085,5.56167 1.505766,6.15441 0.353544,0.74139 0.861204,0.88917 3.008183,0.8757 1.793688,-0.0113 1.917744,-0.0334 3.870063,-0.68988 2.659871,-0.89442 4.516072,-1.20905 6.358988,-1.07786 2.801688,0.19944 8.098847,-0.39663 9.445226,-1.06284 0.301207,-0.14904 0.752675,-0.57118 1.003266,-0.9381 1.344014,-1.96788 4.267916,-9.50765 4.994812,-12.87995 0.471854,-2.18908 0.451518,-4.533312 -0.05803,-6.688666 -0.221659,-0.937664 -0.570528,-2.738866 -0.775255,-4.002673 -1.383113,-8.538145 -1.493536,-10.878563 -0.688963,-14.602342 0.722759,-3.345108 0.722791,-3.345763 0.181857,-3.743951 -0.54144,-0.398565 -1.540557,-1.831783 -1.962349,-2.814964 -0.927156,-2.161164 -1.147491,-5.546656 -0.495882,-7.619325 0.0538,-0.17114 -0.199041,-0.440277 -0.854925,-0.910014 -1.138449,-0.815347 -2.698892,-2.419831 -3.420232,-3.516761 -0.70637,-1.074167 -1.427897,-3.27747 -1.625071,-4.962434 -0.128572,-1.098731 -0.113729,-1.660928 0.07858,-2.977015 0.588486,-4.027159 1.850734,-6.72006 4.204175,-8.969256 1.296275,-1.238858 2.419891,-1.909408 4.278634,-2.553409 2.071643,-0.717761 3.356693,-0.914875 5.880372,-0.901991 l 2.174195,0.01112 0.09534,-0.534352 c 0.418786,-2.347124 1.645745,-6.282689 2.430295,-7.795344 1.014108,-1.955255 3.294919,-3.896019 6.616465,-5.63001 1.293116,-0.675062 1.891591,-1.102566 2.890819,-2.064968 0.781608,-0.752803 2.160791,-1.81286 3.632054,-2.791642 2.977185,-1.980618 4.836223,-3.543535 7.183935,-6.039621 2.810949,-2.98861 5.173646,-4.5337907 12.243561,-8.0071837 4.935616,-2.424829 5.681914,-2.643351 13.411363,-3.92697 2.241073,-0.37217301 4.575013,-0.77190301 5.186533,-0.88829101 1.422814,-0.270797 6.995764,-0.564761 8.532864,-0.450093 0.64753,0.04831 3.14531,0.147003 5.55062,0.219328 6.23427,0.187457 9.37339,0.713155 12.90666,2.16143101 2.26263,0.927448 5.22791,2.002833 10.59051,3.840743 6.3597,2.179644 7.27003,2.542152 8.59833,3.423944 2.21605,1.4711387 5.78853,4.4915137 10.15492,8.5855617 1.61605,1.515245 3.14785,2.676722 6.65005,5.042314 1.67756,1.133133 2.88704,2.323821 3.85349,3.793646 0.5061,0.769693 0.92068,1.853846 2.18722,5.719593 l 1.56274,4.769882 0.48681,-0.079 c 0.26776,-0.04345 1.14677,-0.0067 1.9534,0.08165 4.02868,0.441306 6.89283,1.913379 9.0252,4.638637 1.02301,1.307451 1.3748,1.981134 2.05495,3.935177 1.8347,5.270935 1.00434,9.859814 -2.33146,12.884525 -0.49912,0.452573 -1.0957,0.934069 -1.32573,1.069989 l -0.41824,0.247129 0.12175,1.408347 c 0.1901,2.199326 0.11396,6.00238 -0.14405,7.189987 -0.30454,1.40194 -0.79159,2.655085 -1.2383,3.185969 -0.34867,0.414357 -0.37228,0.556525 -0.42454,2.55495 -0.0353,1.351777 -0.18693,2.865872 -0.41964,4.191637 l -0.36434,2.075461 0.34306,0.592987 c 0.18869,0.326145 0.8107,1.14468 1.38225,1.81897 1.13133,1.33466 1.46408,2.087337 1.88396,4.261272 0.53183,2.753467 0.4126,7.895571 -0.24326,10.491031 -0.50335,1.992032 -1.83539,5.167482 -4.27013,10.179492 -0.50432,1.03819 -0.60832,1.40343 -0.60832,2.13661 0,1.5148 0.46362,2.03643 3.92855,4.42008 0.82932,0.57053 3.74305,2.32639 4.48294,2.70151 0.26415,0.13392 1.21263,0.9356 2.10773,1.78152 1.98331,1.87433 2.64985,2.23844 4.08313,2.23046 1.88669,-0.0106 2.78747,-0.6911 4.14522,-3.13197 1.01286,-1.82082 1.68901,-2.66643 4.19718,-5.24904 2.75642,-2.83823 4.25812,-3.89024 6.7788,-4.74887 1.44316,-0.49159 3.38179,-0.49609 4.46207,-0.0104 1.10251,0.49573 1.89775,1.39339 2.12453,2.39811 0.13564,0.60068 0.14166,0.92523 0.0231,1.23269 -0.0885,0.22953 -0.16093,0.56961 -0.16093,0.75573 0,0.433 -1.38549,1.76201 -2.60292,2.4968 -0.98047,0.59179 -2.78576,1.39565 -4.0682,1.81151 -2.33492,0.75713 -3.48185,1.4878 -5.27549,3.36081 -1.08487,1.13285 -1.17165,1.28669 -1.64294,2.91235 -0.20301,0.70025 -0.52432,1.57744 -0.71401,1.94931 -0.76742,1.50435 -3.22751,3.72724 -4.75922,4.30032 l -0.79659,0.29804 -1.23806,-0.43698 c -1.93561,-0.68318 -2.84077,-0.88481 -5.01682,-1.11748 -3.32877,-0.35594 -5.1899,-1.15519 -10.60581,-4.55462 -1.64661,-1.03353 -3.21432,-1.97129 -3.48381,-2.08391 l -0.48997,-0.20477 0.0514,5.65952 c 0.0467,5.12964 0.0283,5.68269 -0.1959,5.90688 -0.13606,0.13605 -0.35933,0.23614 -0.49619,0.22244 -0.1369,-0.0138 -0.51483,-0.052 -0.83991,-0.0852 z m 23.5997,-5.81412 c 1.05558,-0.70488 2.27266,-1.95901 2.67763,-2.75913 0.16203,-0.32016 0.4768,-1.18251 0.69946,-1.91634 0.22268,-0.73382 0.52427,-1.56771 0.67021,-1.85309 0.3602,-0.70431 3.3492,-3.59409 4.12896,-3.99189 0.34571,-0.17637 0.66159,-0.40678 0.70199,-0.51202 0.0674,-0.17588 -0.85808,-2.98683 -1.04506,-3.17379 -0.11591,-0.11593 -0.63559,0.38788 -2.47216,2.39677 -1.20877,1.32215 -1.84076,2.16936 -2.53697,3.40085 -1.55265,2.74641 -2.88612,3.89335 -4.97909,4.28257 -0.77545,0.14421 -1.08971,0.13059 -2.014,-0.0873 -1.39425,-0.32869 -2.14301,-0.80995 -3.94891,-2.53808 -0.81053,-0.77563 -1.8031,-1.56942 -2.23797,-1.78978 -2.1667,-1.09795 -6.30943,-3.90632 -7.56178,-5.12615 -0.92925,-0.90512 -1.52213,-2.15168 -1.50978,-3.17437 0.0111,-0.94707 0.3367,-1.93132 1.31937,-3.99264 2.3807,-4.99395 3.31381,-7.229623 3.69665,-8.856958 0.77486,-3.29361 0.52074,-10.40345 -0.43813,-12.25769 -0.11938,-0.230708 -0.53894,-0.777768 -0.93254,-1.215688 -1.98497,-2.208595 -2.21307,-2.750001 -1.89008,-4.486356 0.32473,-1.745806 0.66757,-4.479096 0.66757,-5.322312 0,-0.595324 -0.0418,-0.71338 -0.22787,-0.642017 -1.12731,0.432584 -4.43578,0.934154 -5.01609,0.760443 -0.0919,-0.0275 -0.87935,-0.08803 -1.74991,-0.13452 l -1.58284,-0.08452 -0.17944,0.553855 c -0.44862,1.38476 -2.12988,4.124815 -3.57925,5.833314 l -0.80789,0.95233 0.11133,2.521439 c 0.20001,4.531902 0.56711,6.415977 1.70428,8.747057 1.28806,2.640451 1.79292,5.182635 1.64715,8.294713 -0.0727,1.55129 -0.17981,2.11492 -0.83745,4.4039 -0.99588,3.46645 -1.49001,5.90164 -1.49001,7.34329 0,1.02664 0.0503,1.24535 0.41985,1.82546 0.83969,1.31816 2.95981,2.83437 6.77014,4.84169 1.22303,0.64431 2.98941,1.65981 3.92528,2.25666 5.66617,3.61359 7.34598,4.38617 10.04678,4.62073 1.95408,0.16971 3.68927,0.53749 5.09094,1.07904 1.34511,0.5197 1.72369,0.49234 2.75966,-0.19947 z M 16.365259,122.91713 c 0.774591,-0.27036 1.84197,-0.68044 2.371955,-0.91129 l 0.963606,-0.41974 h 6.596997 6.596996 l 1.260101,-0.64528 c 1.779404,-0.91119 3.736024,-1.64775 4.559866,-1.71653 2.908832,-0.24286 4.321552,-0.43321 4.929466,-0.6642 0.862474,-0.32771 2.528826,-1.4729 3.95265,-2.71642 0.584842,-0.51078 1.920554,-1.67299 2.96825,-2.58269 2.116906,-1.83807 3.11871,-3.09072 4.364833,-5.45776 0.872245,-1.65685 0.865866,-1.48291 0.18753,-5.11333 -0.659973,-3.532148 -0.506233,-5.324838 0.928549,-10.827341 0.372059,-1.426879 0.706829,-2.728135 0.743931,-2.891681 0.05233,-0.230645 -0.159358,-0.462339 -0.94357,-1.032759 -0.556067,-0.404471 -1.83484,-1.538175 -2.841719,-2.51934 -2.790384,-2.719124 -4.68298,-5.228023 -6.04261,-8.010315 l -0.724442,-1.482472 -1.408644,-0.01891 c -1.409546,-0.01893 -3.433043,-0.406086 -4.540212,-0.868692 -0.300306,-0.125473 -0.564142,-0.210007 -0.586303,-0.187845 -0.02215,0.02215 -0.246826,1.033433 -0.499254,2.247272 -0.782863,3.7645 -0.774142,4.381231 0.156368,11.058568 0.53552,3.842887 0.916958,6.055489 1.41841,8.227716 0.764127,3.310103 0.252164,6.238769 -2.258127,12.917579 -2.229166,5.93085 -3.372038,7.86564 -5.074665,8.59101 -1.801255,0.76738 -5.627809,1.24602 -9.989611,1.24954 -3.035265,0.003 -3.542945,0.0862 -6.497362,1.07218 -1.771892,0.59133 -1.934285,0.61869 -3.706178,0.62444 -3.21279,0.0104 -4.1566174,-0.5322 -4.8804854,-2.806 -0.4627659,-1.45363 -1.2132114,-4.67865 -1.501679,-6.45342 -0.1084057,-0.66694 -0.3573775,-1.43813 -0.6221988,-1.92722 -0.437802,-0.80856 -0.9613029,-1.48247 -1.1516049,-1.48247 -0.054411,0 -0.1792197,0.26795 -0.2773408,0.59545 -0.2590646,0.86468 -0.8736277,1.47918 -2.149189,2.14896 -0.7777637,0.40839 -1.1263229,0.67554 -1.1274278,0.8641 -0.00278,0.48496 1.3585418,2.92816 2.986897,5.36044 2.620904,3.91486 4.0005321,5.28824 5.8847257,5.85809 2.265847,0.68527 3.819506,0.66448 5.951492,-0.0796 z m 187.367901,-7.76331 c -0.0913,-0.26199 -0.192,-0.45041 -0.2237,-0.4187 -0.0317,0.0317 0.0171,0.27201 0.1084,0.534 0.0913,0.26199 0.19199,0.45041 0.22371,0.4187 0.0317,-0.0317 -0.0171,-0.27201 -0.10841,-0.534 z m 3.50027,-1.1864 c 2.37675,-1.15765 3.1906,-1.99558 2.74572,-2.82687 -0.63877,-1.19354 -3.10987,-1.1959 -5.73529,-0.005 l -0.93126,0.42225 0.16123,0.46253 c 0.0887,0.25439 0.20969,0.44282 0.26889,0.41872 0.0592,-0.0241 0.78069,-0.27515 1.60332,-0.55792 1.21915,-0.41907 1.57302,-0.48694 1.91392,-0.36705 0.33007,0.11608 0.41821,0.23856 0.41821,0.58109 0,0.54243 -0.7102,1.06396 -2.26076,1.66017 -1.0585,0.40701 -1.16854,0.52095 -0.97933,1.01401 0.1423,0.37084 0.741,0.19918 2.79535,-0.80144 z m -1.77897,-1.13606 c 0.40769,-0.19755 0.57447,-0.31913 0.37062,-0.27016 -0.50586,0.12153 -2.41117,0.94451 -2.59432,1.12059 -0.18017,0.17323 1.20249,-0.35555 2.2237,-0.85043 z m 0.77521,-3.26872 c -0.0492,-0.0493 -0.17711,-0.0545 -0.28413,-0.0117 -0.11827,0.0473 -0.0831,0.0825 0.0895,0.0896 0.15628,0.006 0.24385,-0.0286 0.19458,-0.0779 z m -103.63256,-5.00803 c 0.59981,-0.21163 1.88102,-0.9968 2.61277,-1.6012 0.24697,-0.20398 0.4708,-0.58323 0.55239,-0.93593 0.0755,-0.32615 0.13878,-2.933747 0.14072,-5.794671 l 0.003,-5.201677 -1.37122,0.202226 c -0.75421,0.111227 -2.062,0.399866 -2.90622,0.641422 -0.84421,0.241557 -1.95293,0.511986 -2.463814,0.600952 l -0.928883,0.161758 -0.102943,2.248915 c -0.388728,8.492425 -0.386243,7.824365 -0.03152,8.475295 0.490499,0.90009 1.507994,1.40046 2.85681,1.40489 0.58088,0.002 1.31818,-0.089 1.63844,-0.20198 z m 11.86012,-0.52684 c 0.67802,-0.38107 1.30265,-1.30065 1.51782,-2.23453 0.22378,-0.97124 0.19117,-5.55279 -0.0552,-7.76067 -0.11705,-1.048727 -0.23313,-1.921142 -0.25795,-1.938703 -0.0248,-0.01757 -0.54549,-0.109309 -1.15701,-0.203887 -4.02813,-0.62299 -4.9014,-0.749023 -5.59632,-0.80769 l -0.7783,-0.0657 v 5.746698 5.746692 l 0.4415,0.3715 c 0.52318,0.44023 1.88532,1.10622 2.81994,1.37876 0.93779,0.27346 2.35685,0.16585 3.06556,-0.23247 z M 74.2051,91.038319 c 5.186907,-0.655557 9.961501,-2.447999 13.911769,-5.222656 1.431953,-1.005798 2.640661,-2.080661 2.753459,-2.448557 0.175386,-0.572039 1.346672,-2.099482 2.246825,-2.930027 1.201036,-1.108162 2.934855,-2.223624 4.470557,-2.876152 l 0.832333,-0.353664 -0.04937,-0.624106 c -0.07637,-0.965507 0.325708,-1.798059 1.307201,-2.706747 1.898206,-1.757401 5.773046,-2.7307 9.293986,-2.334506 4.14526,0.466445 7.06495,2.179445 7.43785,4.36384 0.0929,0.544329 0.15323,0.604224 0.8452,0.839428 1.93176,0.656626 3.81985,1.823072 5.25578,3.246968 0.99925,0.99088 1.50329,1.756781 1.97704,3.004153 0.22913,0.603306 0.41558,0.792657 1.40411,1.425956 4.24495,2.719513 9.32748,4.271158 15.66812,4.783311 2.24905,0.181663 4.43243,0.10072 6.36272,-0.235898 5.04542,-0.879851 10.79049,-4.508872 14.54742,-9.189255 1.13298,-1.411471 2.49001,-3.592131 3.1367,-5.040401 1.74576,-3.90978 1.8347,-11.62204 0.20802,-18.039316 -1.75013,-6.904306 -5.95911,-13.171429 -11.37019,-16.930147 -2.59669,-1.80375 -6.44633,-3.501252 -10.58685,-4.668273 -9.95828,-2.806787 -23.09735,-3.930896 -40.24909,-3.443497 -9.025718,0.256484 -15.01069,0.771245 -21.644084,1.861582 -11.074854,1.820384 -18.874513,4.63481 -24.016035,8.665936 -4.452263,3.490725 -7.621567,8.320916 -9.47773,14.444573 -1.846013,6.090166 -2.031782,15.163274 -0.391009,19.097129 1.674916,4.015717 5.67011,8.739687 9.720492,11.493642 3.064665,2.083743 5.963909,3.325377 8.928733,3.823836 1.615248,0.271562 5.298668,0.268038 7.476036,-0.0071 z M 72.180302,84.28713 c -4.278463,-0.445974 -8.881855,-2.170047 -11.892755,-4.454104 -3.471675,-2.633598 -5.6934,-5.813137 -6.828281,-9.772045 -1.160824,-4.049407 -1.001881,-8.965236 0.428444,-13.250852 2.438813,-7.307314 8.993389,-13.176601 18.298076,-16.384994 5.405566,-1.863918 9.326804,-2.048346 14.478411,-0.680962 2.395427,0.635816 5.633587,2.252956 7.503443,3.747226 5.473633,4.374182 8.37176,10.130139 8.38139,16.646265 0.007,4.816294 -1.66592,9.462997 -4.732531,13.144077 -0.984074,1.181258 -1.082787,1.27954 -3.308356,3.293908 -3.639794,3.294389 -6.598705,5.053559 -10.699704,6.361325 -4.056147,1.293465 -7.895409,1.739246 -11.628137,1.350156 z m 4.488811,-1.758902 c 1.979394,-0.12778 4.331725,-0.51017 5.767599,-0.937564 0.556024,-0.165502 0.371557,-0.184919 -1.778965,-0.187263 -2.648268,-0.0029 -3.985107,-0.177395 -6.266627,-0.818036 -3.955641,-1.110723 -7.014959,-2.916595 -9.919669,-5.855442 -2.49681,-2.526154 -4.112501,-5.135996 -5.089534,-8.221182 -0.817225,-2.580562 -0.988563,-3.695751 -0.978852,-6.371077 0.01028,-2.84976 0.31126,-4.560199 1.234425,-7.01663 0.692748,-1.843314 1.257505,-2.971189 2.156465,-4.306661 0.377675,-0.561063 0.654455,-1.052341 0.615068,-1.09173 -0.131671,-0.131672 -1.876138,1.494274 -2.896219,2.699433 -1.782486,2.10589 -3.327329,4.82234 -4.056088,7.132221 -1.135133,3.597922 -1.295904,8.326964 -0.402816,11.848812 0.342655,1.351239 1.476494,3.79022 2.381652,5.123124 3.009188,4.431226 8.914806,7.521778 15.263615,7.987819 0.856127,0.06285 1.623306,0.122484 1.704842,0.132547 0.08154,0.01001 1.100832,-0.04321 2.265104,-0.118371 z m 8.482812,-3.846585 c 2.706306,-0.625686 5.3591,-1.874563 7.634728,-3.594257 1.625267,-1.228213 1.854074,-1.43701 2.904826,-2.65078 0.806695,-0.931849 2.654441,-3.603802 2.654441,-3.838484 0,-0.06428 0.225745,-0.609916 0.501657,-1.212533 1.673593,-3.655277 1.910743,-8.952197 0.583184,-13.025655 -2.061194,-6.324539 -7.805251,-11.33582 -14.723577,-12.845272 -1.946083,-0.424599 -6.814387,-0.384083 -8.74658,0.0728 -2.843022,0.672247 -4.625782,1.449709 -7.110392,3.100848 -4.078802,2.710552 -7.05994,7.199661 -7.917101,11.921865 -0.903473,4.977342 0.03078,9.635607 2.765574,13.78939 2.16089,3.282099 5.279,5.812844 8.995844,7.301281 2.88355,1.154739 4.430647,1.408409 8.232353,1.349817 2.261553,-0.03486 3.094266,-0.107586 4.225043,-0.369015 z m 4.373291,-11.039766 c -3.048187,-0.997582 -5.174833,-4.047902 -4.921779,-7.059472 0.312583,-3.720067 3.31922,-6.522875 6.997238,-6.522875 1.884387,0 3.162851,0.522531 4.696511,1.919543 1.156896,1.053818 1.758718,2.129797 2.133517,3.81445 0.230959,1.038112 0.232305,1.218242 0.01728,2.309731 -0.322873,1.638851 -0.868944,2.681034 -1.978067,3.77514 -1.948271,1.921897 -4.489153,2.567109 -6.944691,1.763483 z m 5.195387,-4.606657 c 0.600199,-0.600198 0.416925,-1.801222 -0.326555,-2.139974 -0.486812,-0.221805 -0.872768,-0.207122 -1.374423,0.0523 -0.482564,0.24954 -0.60359,0.49222 -0.60359,1.210317 0,1.132373 1.484428,1.6975 2.304568,0.877358 z m 40.683857,18.291465 c -4.98862,-0.413747 -10.55204,-2.208674 -14.5991,-4.71011 -0.40768,-0.251982 -0.94137,-0.570535 -1.18598,-0.707894 -1.81407,-1.018707 -5.09429,-4.20391 -6.49092,-6.302907 -1.4787,-2.222358 -2.55744,-4.842786 -3.173,-7.707713 -0.37651,-1.752341 -0.3758,-5.8111 0.001,-7.467912 1.05783,-4.647528 2.58273,-7.541949 5.65167,-10.727409 3.21754,-3.339697 6.93693,-5.354297 11.86805,-6.428299 1.24811,-0.271841 1.95117,-0.322692 4.44741,-0.321666 3.20364,0.0013 4.89677,0.163948 7.78297,0.747591 3.55966,0.719829 7.73591,2.329538 10.29438,3.967917 2.87606,1.84174 5.94726,5.08221 7.31814,7.721463 2.04104,3.929415 2.97521,8.360047 2.79755,13.268118 -0.0967,2.671997 -0.34921,4.064294 -1.14147,6.295095 -2.47769,6.976289 -9.58096,11.633074 -18.88244,12.378987 -2.09953,0.168368 -2.6019,0.167804 -4.68857,-0.0053 z m 6.65533,-2.000021 c 4.89792,-0.719232 8.89199,-2.555494 11.73803,-5.396517 3.37721,-3.371265 4.77565,-7.507882 4.53739,-13.421867 -0.15772,-3.914833 -0.77749,-6.63178 -2.16432,-9.487815 -1.86335,-3.837417 -4.7408,-6.719094 -8.82906,-8.842029 -1.11044,-0.576628 -2.04637,-1.021022 -2.07985,-0.987543 -0.0335,0.03348 0.55921,0.598739 1.31708,1.256129 2.00032,1.735107 3.94898,4.214293 5.08396,6.468085 0.71495,1.419655 1.62039,4.194202 1.92075,5.88566 0.98245,5.53253 -0.69657,11.814938 -4.35824,16.307183 -2.19706,2.695424 -5.27808,5.059434 -8.29554,6.365036 -1.92802,0.834218 -5.27192,1.750113 -6.60677,1.809594 -0.44457,0.01981 -0.43752,0.02723 0.12087,0.12721 1.16807,0.20914 5.98332,0.156581 7.6157,-0.08313 z m -7.83417,-2.292588 c 2.35561,-0.285037 4.23703,-0.837292 6.2966,-1.848245 2.25988,-1.109264 3.33317,-1.799462 4.71601,-3.032723 3.26725,-2.913819 5.44382,-6.791036 6.10669,-10.878149 0.2842,-1.752306 0.2816,-4.540918 -0.006,-6.313564 -0.81233,-5.008975 -4.11041,-9.889344 -8.59994,-12.72585 -2.06039,-1.301761 -5.15622,-2.471195 -7.62789,-2.881392 -1.64314,-0.272693 -5.56993,-0.225292 -7.18999,0.08679 -3.09081,0.595406 -6.01019,1.878529 -8.52421,3.74656 -2.20555,1.638826 -3.07608,2.639133 -5.33307,6.128119 -0.13186,0.20384 -0.48708,0.971019 -0.78938,1.704842 -2.93248,7.118581 -1.1415,15.460207 4.43814,20.670982 4.3696,4.080721 10.51361,6.068568 16.51291,5.342629 z m 7.58363,-11.132345 c -2.38325,-0.396453 -4.42634,-2.030368 -5.41418,-4.329846 -0.83944,-1.954057 -0.57696,-4.626831 0.62609,-6.375415 2.25,-3.270267 6.43831,-4.149848 9.61218,-2.018642 2.3567,1.582475 3.61904,4.423302 3.09097,6.955983 -0.33446,1.604026 -0.9646,2.770065 -2.0713,3.832771 -1.07548,1.032729 -2.08523,1.560748 -3.59735,1.881134 -1.12533,0.238436 -1.13621,0.238697 -2.24641,0.05402 z m 4.1354,-4.863181 c 0.92753,-0.92754 0.36109,-2.235111 -0.96827,-2.235111 -0.84173,0 -1.26684,0.370756 -1.26684,1.104878 0,1.425665 1.28825,2.077095 2.23511,1.130233 z M 98.864785,90.225012 c 0.570752,-0.08205 1.724585,-0.345726 2.564075,-0.585932 3.66147,-1.047675 6.50415,-1.11671 11.29703,-0.274353 2.19809,0.386318 3.15462,0.483064 4.81804,0.487316 1.8564,0.0047 2.14882,-0.03001 2.7706,-0.32926 0.88957,-0.428143 1.69764,-1.373876 1.97664,-2.313389 0.2913,-0.980911 0.28694,-3.153464 -0.008,-3.858749 -0.3588,-0.858726 -1.17089,-1.892208 -1.95512,-2.488103 -0.91473,-0.695058 -2.99475,-1.798616 -4.00325,-2.123925 l -0.77412,-0.249711 -0.9021,0.678117 c -1.16313,0.874347 -3.42922,1.629835 -5.66996,1.890301 -2.74277,0.318825 -5.87044,-0.237795 -8.08079,-1.438105 -0.51241,-0.278259 -1.046098,-0.504965 -1.185977,-0.503792 -0.432213,0.0036 -3.163468,1.403255 -4.26122,2.183664 -1.074894,0.764161 -2.006332,1.839653 -2.600641,3.002854 -0.260178,0.509229 -0.354545,0.982879 -0.398734,2.001337 -0.05349,1.232873 -0.02607,1.396104 0.360998,2.148861 0.847589,1.648366 2.846179,2.233804 6.052278,1.772869 z M 45.657407,73.739338 c -0.33629,-1.655934 -0.442387,-3.088183 -0.449762,-6.071586 l -0.0083,-3.366076 -0.370618,0.10343 c -0.55093,0.153752 -5.212359,0.086 -6.736349,-0.09791 -0.728931,-0.08796 -1.362687,-0.122665 -1.408349,-0.07711 -0.162897,0.162536 -0.182666,2.711937 -0.0287,3.700913 0.19686,1.26447 1.112338,3.198056 1.890201,3.992308 1.28318,1.310213 3.837269,2.18747 6.63528,2.279033 0.571912,0.01871 0.574025,0.01666 0.476612,-0.463005 z M 174.84144,72.427114 c 0.82146,-0.225299 1.63965,-0.724669 2.05736,-1.255691 0.80381,-1.021911 1.29855,-4.22085 1.12734,-7.289611 -0.0981,-1.757721 -0.11133,-1.812838 -0.41994,-1.743033 -2.46047,0.556552 -4.51227,0.815579 -6.46031,0.815579 -0.97366,0 -1.92474,-0.05872 -2.11351,-0.13049 l -0.3432,-0.13049 v 3.354862 c 0,2.964524 -0.14125,4.834678 -0.46809,6.197491 -0.0632,0.263376 0,0.335721 0.34362,0.394998 0.78226,0.134854 5.60454,-0.02927 6.27673,-0.21362 z M 45.410051,62.380282 c 0.06914,-0.111908 0.168272,-0.578881 0.220304,-1.037729 0.150645,-1.328489 0.902829,-4.385863 1.557911,-6.332375 1.587845,-4.718128 3.608985,-8.136249 6.798966,-11.498313 1.235005,-1.301625 3.64502,-3.349079 4.620165,-3.925112 0.318306,-0.188027 0.427176,-0.340234 0.355357,-0.496815 -0.473009,-1.03126 -1.289007,-3.84606 -1.591096,-5.488511 -0.358031,-1.946598 -0.831427,-6.225061 -0.831427,-7.514257 0,-0.351633 -0.03502,-0.639334 -0.07783,-0.639334 -0.16368,0 -2.182564,1.064876 -2.951798,1.556951 -1.310828,0.838525 -2.566521,1.957475 -3.124354,2.784116 -0.951084,1.409384 -2.277472,5.390156 -2.671502,8.017727 l -0.100067,0.667256 0.645405,0.165513 c 1.769855,0.453874 2.831177,0.813724 2.895675,0.981799 0.06943,0.180943 -1.79059,3.233368 -2.344948,3.848218 -0.151767,0.168327 -0.275938,0.35861 -0.275938,0.42285 0,0.06424 -0.52374,0.993896 -1.163865,2.065904 -2.962114,4.960607 -3.502229,6.38902 -5.063378,13.390857 -0.323952,1.45295 -0.626077,2.798768 -0.671386,2.99071 l -0.08237,0.348984 1.865237,-0.05249 c 1.376233,-0.03872 1.89819,-0.105835 1.990936,-0.255949 z m -5.705394,-1.54008 c 0.129726,-0.590236 0.442126,-1.9581 0.694222,-3.039697 l 0.458355,-1.96654 -1.045812,-0.968262 c -1.707474,-1.580858 -2.265935,-3.180273 -1.729304,-4.952649 0.326563,-1.078563 1.155917,-1.933736 2.2144,-2.283341 0.803191,-0.265284 2.523427,-0.321331 3.102707,-0.101096 0.435397,0.165537 0.472584,0.129309 1.133075,-1.103818 0.262033,-0.489216 0.769476,-1.332077 1.127651,-1.873026 0.358176,-0.540948 0.651228,-1.022777 0.651228,-1.070733 0,-0.04795 0.360695,-0.639132 0.801545,-1.313731 0.44085,-0.6746 0.776737,-1.266687 0.746414,-1.315748 -0.147589,-0.238805 -3.319247,-0.468304 -5.363041,-0.388069 -2.407196,0.09451 -3.717101,0.380579 -5.222707,1.140606 -2.162083,1.091416 -3.187192,2.132147 -4.310277,4.375959 -1.021605,2.041066 -1.345083,3.377847 -1.434926,5.929886 -0.08682,2.466102 0.09825,3.382145 1.044787,5.171718 0.739328,1.3978 2.058126,2.681828 3.746789,3.648009 1.128621,0.645746 2.866468,1.354721 3.049351,1.244018 0.05483,-0.03319 0.205816,-0.543256 0.335543,-1.133492 z M 171.87649,59.856876 c 0,-2.974774 -0.46997,-5.948715 -1.29097,-8.169299 -0.77566,-2.097868 -2.78265,-6.658288 -4.87796,-11.084027 -0.35773,-0.755613 -0.65043,-1.503212 -0.65043,-1.66133 0,-0.228792 0.23457,-0.360989 1.14891,-0.647466 0.6319,-0.197986 1.36835,-0.406901 1.63656,-0.464253 0.41403,-0.08853 0.47301,-0.152667 0.39066,-0.424771 -0.50348,-1.663833 -2.48218,-7.735661 -2.65812,-8.156735 -0.38096,-0.911778 -1.27674,-2.206718 -2.06545,-2.985801 -0.63114,-0.623439 -5.5538,-4.106431 -6.12,-4.330161 -0.19587,-0.0774 -2.94777,5.450538 -3.81614,7.665722 -0.27169,0.693056 -0.94104,2.294125 -1.48746,3.557931 -0.5464,1.263808 -1.02599,2.377587 -1.06573,2.475068 -0.0432,0.106168 0.42333,0.42543 1.16356,0.796143 6.29095,3.150582 11.72521,9.44744 14.30592,16.576743 0.5743,1.586568 1.43518,4.790316 1.67766,6.243541 0.30306,1.816179 0.27709,1.7564 0.79098,1.820707 0.25957,0.03248 1.0223,0.06973 1.69497,0.08278 l 1.22304,0.02372 z m 4.79994,-0.46641 c 0.86609,-0.324048 2.34605,-1.197502 3.0041,-1.773004 2.52167,-2.205291 3.27448,-5.499494 2.21303,-9.683883 -0.86001,-3.390337 -2.62908,-5.773724 -5.19742,-7.002287 -1.88087,-0.899717 -3.38494,-1.159802 -6.15388,-1.06414 -1.18226,0.04085 -2.25998,0.120122 -2.39491,0.176161 -0.21341,0.08864 -0.15305,0.29823 0.46407,1.610973 1.34106,2.852761 1.81563,3.881728 1.94252,4.21183 0.10938,0.284626 0.19505,0.315661 0.61366,0.222371 0.26759,-0.05964 1.02713,-0.10464 1.68788,-0.100012 1.02266,0.0072 1.32827,0.07263 2.05462,0.440129 1.6159,0.817571 2.56635,2.468969 2.38056,4.136184 -0.0538,0.483204 -0.22283,1.123418 -0.37552,1.422698 -0.3286,0.644118 -1.66643,1.903576 -2.55499,2.405314 -0.3468,0.195832 -0.61746,0.423732 -0.60145,0.506441 0.11508,0.593837 0.34149,3.377156 0.34149,4.196549 v 1.002178 l 0.89567,-0.20692 c 0.49262,-0.113799 1.24888,-0.339069 1.68057,-0.500586 z M 62.128934,37.545933 c 7.864293,-3.92702 19.65098,-6.468902 34.43235,-7.425573 1.912975,-0.123805 4.371906,-0.22511 5.464286,-0.22511 h 1.98615 l -0.10382,-1.593657 c -0.0571,-0.876511 -0.0892,-3.461571 -0.0713,-5.744576 0.0476,-6.083817 0.0175,-7.417192 -0.23653,-10.451422 -0.24936,-2.9790267 -0.71632,-7.3993417 -0.97489,-9.2283837 -0.18413,-1.302534 -0.11367,-1.261965 -1.61078,-0.927388 -0.52998,0.118441 -3.331857,0.621157 -6.226381,1.117144 -6.623867,1.135024 -7.779872,1.386396 -9.339569,2.030875 -2.746506,1.134878 -8.299399,3.978084 -10.747917,5.5031707 -2.426392,1.51131 -3.097043,2.052167 -4.80475,3.874883 -2.547362,2.718916 -4.953767,4.716476 -8.315121,6.902388 -0.856127,0.556746 -2.040251,1.47794 -2.631386,2.047098 l -1.074791,1.034831 v 0.991148 c 0,2.521015 0.603711,7.605364 1.185207,9.981614 0.263024,1.074829 0.990789,3.060608 1.121679,3.060608 0.02739,0 0.903817,-0.426443 1.947593,-0.94765 z m 88.048276,-3.166208 c 0.39724,-0.877736 0.54072,-1.217735 1.80686,-4.281557 0.81015,-1.96045 0.92815,-2.220615 2.86472,-6.316711 0.72244,-1.528029 1.30873,-2.828897 1.30289,-2.890819 -0.0125,-0.131685 -4.82883,-4.561954 -6.65173,-6.1184 -4.09472,-3.496232 -5.54039,-4.390339 -8.97773,-5.5524477 -5.70184,-1.927708 -12.60712,-4.378663 -14.47524,-5.137836 -2.89561,-1.176726 -4.82373,-1.553537 -10.94913,-2.139779 -2.91676,-0.279153 -11.50301,-0.476163 -11.36996,-0.260882 0.21573,0.34905 1.16021,9.0767487 1.41686,13.0927497 0.0703,1.100735 0.0952,4.043088 0.0552,6.538566 -0.04,2.495476 -0.0247,5.430769 0.0339,6.522873 l 0.10662,1.985644 7.43595,0.0099 c 5.52284,0.0074 8.29413,0.07495 10.77152,0.262693 7.5918,0.5753 13.06629,1.392738 18.60359,2.777846 2.22896,0.557555 6.48964,1.898337 7.02365,2.210254 0.45322,0.264727 0.61609,0.150596 1.00203,-0.702123 z"
     id="path120" />
</svg>
